<?xml version="1.0" standalone="no"?>
<!DOCTYPE svg PUBLIC "-//W3C//DTD SVG 20010904//EN"
 "http://www.w3.org/TR/2001/REC-SVG-20010904/DTD/svg10.dtd">
<svg version="1.0" xmlns="http://www.w3.org/2000/svg"
 width="1280.000000pt" height="1280.000000pt" viewBox="0 0 1280.000000 1280.000000"
 preserveAspectRatio="xMidYMid meet">
<metadata>
Created by potrace 1.16, written by Peter Selinger 2001-2019
</metadata>
<g transform="translate(0.000000,1280.000000) scale(0.100000,-0.100000)"
fill="#000000" stroke="none">
<path d="M6600 12330 c-374 -27 -526 -83 -715 -262 -186 -175 -223 -285 -259
-763 -9 -110 -25 -342 -36 -515 -33 -512 -42 -579 -119 -874 -90 -349 -152
-717 -154 -916 -2 -143 -2 -143 84 -241 l59 -66 -15 -694 c-27 -1278 -57
-2014 -105 -2554 -16 -180 -37 -523 -70 -1180 l-32 -620 -160 -475 c-562
-1669 -667 -1919 -910 -2175 -198 -209 -422 -295 -873 -335 -154 -14 -739 -14
-960 0 -171 11 -437 36 -488 46 -49 10 -28 -12 42 -45 110 -51 256 -71 661
-91 253 -13 853 -12 1045 0 309 21 539 78 703 174 107 63 271 222 358 346 141
201 210 329 532 986 151 307 258 536 268 574 12 49 15 89 10 169 -27 471 -10
1125 27 1065 9 -15 34 -335 47 -599 19 -397 36 -524 106 -770 64 -227 77 -314
77 -490 -1 -108 -8 -198 -27 -322 -29 -197 -26 -239 25 -352 40 -87 74 -142
190 -296 272 -364 379 -460 559 -499 90 -19 310 -49 316 -43 3 2 -45 45 -105
95 -133 111 -201 190 -292 344 -81 135 -197 373 -230 468 -33 97 -36 206 -9
315 22 90 101 333 224 691 77 223 140 461 155 589 24 195 34 617 22 904 -12
276 -22 376 -59 591 -27 151 -50 363 -57 530 -3 74 -7 162 -10 195 -2 33 33
-120 79 -340 46 -220 98 -454 115 -519 17 -65 31 -121 31 -122 0 -2 8 -4 18
-4 22 0 146 91 246 179 186 164 336 392 485 734 89 206 116 301 130 457 10
110 31 703 31 850 l0 55 -132 110 c-255 214 -707 672 -850 863 -90 120 -185
317 -208 432 -22 107 -54 364 -47 383 2 6 34 -80 71 -193 81 -248 165 -424
268 -562 183 -243 440 -516 683 -723 167 -142 287 -262 319 -319 34 -58 46
-126 57 -322 13 -245 60 -418 139 -507 37 -42 65 -48 74 -14 28 104 -26 835
-74 1015 -39 144 -94 230 -448 701 -364 484 -370 499 -357 853 4 109 9 197 11
195 3 -2 16 -80 29 -173 45 -308 84 -411 228 -595 100 -130 137 -173 141 -168
2 2 12 56 22 119 16 97 19 169 19 460 -1 318 -3 361 -28 545 -14 110 -38 301
-52 425 -14 124 -34 261 -44 305 -46 192 -116 334 -238 483 -153 188 -176 221
-224 317 -121 247 -140 521 -54 791 60 190 117 218 505 249 113 9 251 23 308
30 205 29 350 75 340 108 -8 24 -75 46 -178 57 -159 17 -270 51 -284 86 -13
34 60 28 309 -27 119 -26 299 -31 358 -10 50 17 106 67 123 108 24 55 18 98
-17 133 -41 41 -90 64 -299 145 -225 86 -400 170 -498 238 -105 74 -171 110
-277 150 -50 19 -127 53 -170 76 l-80 42 -140 4 c-77 2 -196 0 -265 -5z"/>
<path d="M7630 8258 c0 -18 -7 -168 -16 -333 -17 -315 -15 -432 6 -477 7 -15
51 -57 97 -94 195 -154 319 -292 362 -402 40 -100 71 -376 71 -634 1 -170 18
-246 83 -369 30 -57 65 -130 78 -162 12 -31 28 -56 33 -54 15 5 12 992 -3
1207 -6 90 -19 194 -27 231 -15 66 -84 200 -127 249 -13 14 -45 63 -72 110
-79 140 -469 760 -477 760 -5 0 -8 -15 -8 -32z"/>
<path d="M7504 5070 c-17 -25 -69 -110 -117 -190 -166 -282 -283 -420 -569
-672 l-149 -132 5 -45 c3 -25 22 -224 41 -441 20 -217 47 -471 61 -565 48
-326 55 -406 55 -630 1 -224 -10 -361 -36 -450 -17 -61 -73 -154 -100 -169
-29 -16 -35 -27 -35 -70 0 -54 23 -138 71 -252 23 -55 68 -178 100 -274 72
-211 121 -312 209 -428 81 -108 165 -174 257 -202 81 -25 207 -38 217 -22 9
14 -11 51 -151 295 -63 109 -131 233 -151 275 l-37 77 1 135 c2 217 30 308
240 783 254 572 320 772 345 1050 19 215 -15 641 -97 1202 -39 272 -99 633
-117 715 l-13 55 -30 -45z"/>
</g>
</svg>
