<?xml version="1.0" encoding="UTF-8"?>
<svg xmlns="http://www.w3.org/2000/svg" xmlns:xlink="http://www.w3.org/1999/xlink" width="32pt" height="32pt" viewBox="0 0 32 32" version="1.1">
<g id="surface1">
<path style=" stroke:none;fill-rule:nonzero;fill:rgb(0%,0%,0%);fill-opacity:1;" d="M 14.324219 1.269531 C 14.226562 1.339844 13.996094 1.445312 13.816406 1.5 C 13.640625 1.5625 13.347656 1.71875 13.171875 1.863281 C 12.992188 2.003906 12.496094 2.242188 12.0625 2.402344 C 11.148438 2.730469 11.015625 2.839844 11.15625 3.148438 C 11.300781 3.449219 11.75 3.511719 12.46875 3.335938 C 12.796875 3.253906 13.082031 3.210938 13.109375 3.238281 C 13.222656 3.351562 12.921875 3.496094 12.460938 3.53125 C 11.457031 3.609375 12.097656 3.902344 13.472656 3.992188 C 14.609375 4.0625 14.714844 4.125 14.898438 4.773438 C 15.128906 5.632812 14.917969 6.546875 14.324219 7.210938 C 13.773438 7.8125 13.5625 8.320312 13.464844 9.207031 C 13.429688 9.632812 13.347656 10.242188 13.304688 10.582031 C 13.207031 11.253906 13.199219 12.265625 13.285156 12.851562 L 13.347656 13.234375 L 13.625 12.894531 C 14.046875 12.363281 14.128906 12.160156 14.242188 11.398438 L 14.339844 10.6875 L 14.367188 11.21875 C 14.421875 12.308594 14.429688 12.292969 13.535156 13.472656 C 12.347656 15.035156 12.355469 15.015625 12.25 16.035156 C 12.125 17.199219 12.125 17.941406 12.238281 17.871094 C 12.480469 17.71875 12.683594 17.109375 12.683594 16.542969 C 12.683594 16.210938 12.734375 15.847656 12.808594 15.714844 C 12.878906 15.582031 13.234375 15.21875 13.605469 14.917969 C 14.375 14.289062 15.363281 13.171875 15.652344 12.59375 C 15.769531 12.371094 15.929688 11.957031 16.007812 11.679688 C 16.089844 11.40625 16.167969 11.175781 16.1875 11.175781 C 16.25 11.175781 16.132812 12.089844 16.035156 12.417969 C 15.980469 12.585938 15.789062 12.949219 15.609375 13.214844 C 15.300781 13.667969 14.085938 14.898438 13.402344 15.457031 L 13.109375 15.707031 L 13.144531 17.011719 C 13.179688 18.234375 13.199219 18.351562 13.464844 18.972656 C 13.890625 19.964844 14.28125 20.550781 14.800781 20.984375 C 15.058594 21.199219 15.300781 21.375 15.335938 21.375 C 15.371094 21.375 15.53125 20.746094 15.679688 19.972656 L 15.964844 18.582031 L 15.921875 19.511719 C 15.894531 20.027344 15.8125 20.683594 15.742188 20.976562 C 15.601562 21.585938 15.574219 23.566406 15.699219 24.53125 C 15.742188 24.90625 15.972656 25.683594 16.238281 26.394531 C 16.488281 27.078125 16.699219 27.789062 16.699219 27.980469 C 16.710938 28.238281 16.613281 28.542969 16.335938 29.089844 C 15.929688 29.890625 15.734375 30.15625 15.300781 30.5 L 15.035156 30.714844 L 15.511719 30.652344 C 16.167969 30.5625 16.308594 30.472656 16.871094 29.792969 C 17.625 28.871094 17.855469 28.425781 17.792969 28.042969 C 17.613281 27.023438 17.632812 26.472656 17.863281 25.738281 C 18.046875 25.144531 18.101562 24.753906 18.144531 23.636719 C 18.183594 22.875 18.234375 22.234375 18.269531 22.21875 C 18.367188 22.15625 18.4375 23.742188 18.367188 24.566406 C 18.304688 25.292969 18.316406 25.339844 18.597656 25.898438 C 18.75 26.21875 19.167969 27.042969 19.503906 27.742188 C 20.503906 29.78125 21.089844 30.324219 22.527344 30.519531 C 23.636719 30.667969 26.742188 30.582031 27.140625 30.394531 L 27.449219 30.242188 L 27.050781 30.289062 C 26.003906 30.414062 24.285156 30.4375 23.503906 30.339844 C 22.511719 30.21875 22.058594 30.03125 21.605469 29.570312 C 21.011719 28.957031 20.726562 28.320312 19.664062 25.1875 L 18.898438 22.925781 L 18.800781 21.0625 C 18.75 20.035156 18.6875 18.996094 18.667969 18.757812 C 18.535156 17.304688 18.4375 15.238281 18.394531 12.90625 L 18.339844 10.242188 L 18.535156 10.039062 C 18.714844 9.855469 18.730469 9.765625 18.6875 9.242188 C 18.652344 8.683594 18.394531 7.449219 18.183594 6.742188 C 18.128906 6.570312 18.046875 5.710938 17.996094 4.832031 C 17.871094 2.597656 17.816406 2.351562 17.304688 1.863281 C 16.796875 1.367188 16.425781 1.242188 15.34375 1.179688 C 14.695312 1.152344 14.457031 1.171875 14.324219 1.269531 Z M 14.324219 1.269531 "/>
<path style=" stroke:none;fill-rule:nonzero;fill:rgb(0%,0%,0%);fill-opacity:1;" d="M 12.285156 12.265625 C 11.945312 12.808594 11.644531 13.292969 11.628906 13.347656 C 11.609375 13.390625 11.566406 13.453125 11.53125 13.480469 C 11.496094 13.507812 11.398438 13.667969 11.308594 13.835938 C 11.175781 14.09375 11.148438 14.4375 11.113281 16.007812 C 11.085938 17.683594 11.09375 17.835938 11.203125 17.542969 C 11.273438 17.355469 11.398438 17.109375 11.476562 16.984375 C 11.574219 16.832031 11.617188 16.566406 11.617188 16.070312 C 11.617188 15.679688 11.664062 15.148438 11.707031 14.890625 C 11.796875 14.414062 12.035156 14.121094 12.824219 13.5 C 13.003906 13.355469 13.011719 13.292969 12.957031 12.308594 L 12.90625 11.273438 Z M 12.285156 12.265625 "/>
<path style=" stroke:none;fill-rule:nonzero;fill:rgb(0%,0%,0%);fill-opacity:1;" d="M 13.003906 20.152344 C 12.734375 21.792969 12.59375 23.078125 12.59375 23.796875 C 12.59375 24.621094 12.796875 25.292969 13.535156 26.898438 C 13.90625 27.714844 14.046875 28.117188 14.074219 28.523438 C 14.121094 29.054688 14.109375 29.089844 13.667969 29.84375 C 13.417969 30.269531 13.214844 30.632812 13.214844 30.652344 C 13.214844 30.722656 13.542969 30.6875 13.828125 30.589844 C 14.207031 30.457031 14.679688 29.816406 14.855469 29.199219 C 14.945312 28.921875 15.078125 28.523438 15.175781 28.320312 C 15.351562 27.929688 15.398438 27.582031 15.265625 27.582031 C 15.21875 27.582031 15.121094 27.449219 15.042969 27.28125 C 14.875 26.925781 14.847656 25.613281 14.996094 24.789062 C 15.050781 24.496094 15.105469 24.054688 15.128906 23.8125 C 15.148438 23.566406 15.203125 23.023438 15.238281 22.589844 L 15.308594 21.816406 L 14.652344 21.234375 C 14.199219 20.824219 13.878906 20.433594 13.597656 19.945312 C 13.375 19.554688 13.179688 19.246094 13.171875 19.246094 C 13.160156 19.246094 13.082031 19.652344 13.003906 20.152344 Z M 13.003906 20.152344 "/>
</g>
</svg>
